<?xml version="1.0" standalone="no"?><!DOCTYPE svg PUBLIC "-//W3C//DTD SVG 1.1//EN" "http://www.w3.org/Graphics/SVG/1.1/DTD/svg11.dtd"><svg t="1630570589085" class="icon" viewBox="0 0 1024 1024" version="1.1" xmlns="http://www.w3.org/2000/svg" p-id="11619" xmlns:xlink="http://www.w3.org/1999/xlink" width="128" height="128"><defs><style type="text/css"></style></defs><path d="M499.69152 722.74432c-0.08704-36.3008-0.09728-72.704 0.41472-108.99968 0.23552-16.98816 1.08032-34.08896 3.36384-50.93376 1.57696-11.63776 6.26176-23.72608 6.33344-35.53792 0.14848-24.3712-19.03104-30.49984-39.3984-33.11616-39.9872-5.14048-80.10752-4.73088-120.31488-4.5824-18.8928 0.07168-25.69216 18.82624-20.41856 32.32256-11.80672 25.2416-11.89888 55.95648-12.44672 83.29728-1.27488 63.62624 0.49152 127.27808-0.52224 190.90432-0.84992 53.39136 76.01664 35.16416 107.77088 37.82144 19.26656 1.60256 38.10304 3.712 57.3184 0.55808 22.12864-3.62496 26.8288-27.99104 25.41568-46.51008-1.70496-22.3488-7.46496-42.64448-7.51616-65.22368z" fill="#FFF42E" p-id="11620"></path><path d="M640.74752 358.56384c-1.60256-1.27488-2.23744-5.45792-3.81952-6.49216 0.0512-0.06144-3.0976-1.46944-3.05152-1.53088-18.304-13.66016-37.83168-34.67776-46.3616-56.14592-3.70688-9.344-0.60928-23.53152-1.7664-33.49504-1.28-11.04896 2.15552-25.16992-1.83296-35.69664-15.4624-40.80128-62.1824-28.50816-96.64-26.65472-16.13312 0.86528-32.86528-7.10144-48.3072 0.42496-12.5696-12.40064-39.81312-7.22944-39.61344 15.5904 0.40448 46.60224 2.37568 107.70944-20.79232 149.94432-12.06272 21.9904 0.90624 41.216 22.2976 38.2976 36.33664-4.95616 72.3712-24.63744 109.75744-23.61856 20.37248 0.55296 39.93088 8.2944 60.61056 8.3968 7.37792 0.03584 15.32416-2.36544 22.38464-4.1984 5.0432-1.3056 17.8688-1.4336 14.28992-4.6336 1.4848 1.152 2.9696 2.29376 4.46976 3.41504 20.8128 15.53408 48.7168-7.50592 28.37504-23.6032z" fill="#FFFFFF" p-id="11621"></path><path d="M635.7248 420.45952c-1.95072-6.6048-7.22944-11.7248-13.50656-14.50496-10.02496-17.4336-42.96192-13.62944-42.96192 11.42784 0 40.20736-3.81952 82.02752-0.4096 122.07616 1.79712 21.0688 18.00704 64.45056 47.62624 52.28032 24.50432-10.05568 23.62368-41.2672 23.89504-63.7184 0.18944-15.39072 0.94208-30.74048 1.152-46.1312 0.32768-23.296-9.48224-40.07424-15.7952-61.42976z" fill="#FFFFFF" p-id="11622"></path><path d="M696.50944 638.91456c-0.05632-6.22592-1.39776-11.60704-3.64544-16.19456a38.0928 38.0928 0 0 0-0.58368-5.02272c2.18112-5.43744 3.18464-11.64288 2.70336-18.50368-0.3328-4.79232-1.84832-8.7808-4.12672-12.01152 14.33088-47.68256 8.51456-101.31456 0.50176-149.88288-3.80928-23.0912-15.73376-53.86752-38.38464-62.3104-27.05408-10.08128-52.31616 2.37056-81.26464 1.53088-16.81408 0.91136-35.6096-11.1104-48.22016-11.07968-27.392 0.0768-32.64512 11.35104-59.96032 12.60544-26.51136 1.21856-44.0832-14.66368-70.66112-12.60544-26.48576 2.05312-61.11232 87.15776-61.11232 103.50592 0 21.80608 11.86304 14.78656 31.70304 17.18272 45.01504 5.44768 93.89568 18.67264 138.07104 5.6832 1.13152 10.79808 2.42688 21.17632 3.2256 30.52544 3.21536 37.67296 0.47616 76.27264 1.93536 114.11456 1.47456 38.28224 3.78368 76.5184 4.8128 114.82112 0.47104 17.54624 0.4608 35.09248 0.14848 52.6336-0.10752 5.71392-3.70688 14.10048-3.52256 13.85984-8.80128 11.19744-22.66112 14.8992-39.56736 18.21696-34.7648 6.81472-76.65664 0.67584-109.11232-4.79232-19.69152-3.31776-29.44512 4.32128-35.1488 25.04192-4.8896 17.77152-4.08064 42.34752 15.64672 45.66528 33.98656 5.72416 78.50496 11.74528 120.36096 8.67328 5.84192 8.20224 17.024-1.73568 30.13632-1.63328 59.63264 0.46592 120.69376 11.60192 179.89632 0.57344 25.14432-4.67968 27.25888-21.90336 18.10432-41.61536-0.54272-1.17248-0.92672-2.44224-1.36704-3.67616 3.44576-35.2768 10.9312-70.08256 12.96896-105.53344 2.31424-39.8592-3.17952-79.91296-3.53792-119.77216z m-104.30464-67.39968c-3.7888-7.12192-8.78592-11.89888-14.34112-14.80704-0.19456-21.46816-0.37376-42.88-2.49344-64.45568-1.24416-12.63616-2.06848-25.26208-2.01216-37.95968 0.01024-2.46272 0.26112-8.30976 0.6656-10.69568 0.38912-2.26304 0.32256-3.28704 0.1536-3.72224 0.32768-0.15872 0.82944-0.49152 1.59232-1.15712 4.63872-4.0192 9.76384-30.99648 11.50464-35.85536 15.12448-0.77824 7.82848-14.86336 44.30848 16.04608 12.42624 10.52672 15.63136 28.43136 17.024 41.33888 4.72576 43.81696 10.49088 89.23136-7.78752 129.44384-20.11136 4.13184-37.83168 2.07872-48.6144-18.176zM611.09248 183.84384c-2.21696-13.69088-1.23392-28.48256-15.11424-36.61312-12.81536-7.50592-29.10208-4.2752-43.07456-3.70176-49.28 2.02752-99.06688 0-148.38784 0-3.28704 0-6.18496 0.59392-8.74496 1.60256-12.288-1.39776-26.33216 5.9136-27.34592 21.888-0.53248 8.39168-0.58368 15.35488 1.3824 21.90336-0.71168 11.96032 6.64576 24.50432 22.10816 24.50432 3.60448 0 6.7584-0.6912 9.48736-1.88928 11.20256 0.53248 23.3216-1.3312 31.84128-1.43872 50.78016-0.65536 105.43616-3.95264 155.7504 2.75968 16.19968 2.15552 24.18176-16.15872 22.09792-29.01504z" fill="#FFB600" p-id="11623"></path><path d="M363.52 148.48v61.44c0 10.24 15.36 10.24 15.36 0V148.48c0-10.24-15.36-10.24-15.36 0 0 0 0-10.24 0 0z" fill="#666666" p-id="11624"></path><path d="M372.43392 220.0064c41.85088-5.21216 84.41344 0.1536 126.45376 0.1536H604.16c10.24 0 10.24-15.36 0-15.36H498.88768c-42.04544 0-84.608-4.48512-126.45376 0.73216-8.6784 1.08032-8.7808 15.5648 0 14.47424zM373.76 153.6h230.4c5.12 0 5.12-15.36 0-15.36H373.76c-10.24 0-10.24 15.36 0 15.36 0 0-10.24 0 0 0z" fill="#666666" p-id="11625"></path><path d="M597.79584 145.45408c0.36864 23.26528 4.6848 46.26944 4.09088 69.56544-0.22528 8.87296 13.53216 8.85248 13.75232 0 0.59392-23.296-3.72224-46.30016-4.08576-69.56544-0.14336-8.86272-13.89568-8.87296-13.75744 0zM389.12 148.48v56.32c0 10.24 15.36 10.24 15.36 0V148.48c0-10.24-15.36-10.24-15.36 0 0 0 0-10.24 0 0zM414.72 153.6v51.2c0 10.24 15.36 10.24 15.36 0V153.6c0-10.24-15.36-10.24-15.36 0 0 0 0-10.24 0 0zM445.44 153.6v51.2c0 10.24 15.36 10.24 15.36 0V153.6c0-10.24-15.36-10.24-15.36 0 0 0 0-10.24 0 0zM476.16 153.6v56.32c0 10.24 10.24 10.24 10.24 0V153.6c0-5.12-10.24-5.12-10.24 0 0 0 0-5.12 0 0zM501.76 148.48v61.44c0 5.12 15.36 5.12 15.36 0V148.48c0-10.24-15.36-10.24-15.36 0 0 0 0-10.24 0 0zM523.1104 149.54496c0.0768 20.46976 0.95232 40.91904 1.01888 61.38368 0.03072 8.86272 13.77792 8.86784 13.75232 0-0.0768-20.46464-0.94208-40.91392-1.01888-61.38368-0.03072-8.86272-13.78304-8.86784-13.75232 0zM546.64192 151.58784c0.08192 18.42176 0.95232 36.82304 1.02912 55.24992 0.03072 8.86272 13.77792 8.86784 13.7472 0-0.0768-18.42176-0.9472-36.82304-1.024-55.24992-0.04096-8.86272-13.78816-8.86784-13.75232 0zM569.14944 148.52096c1.23904 19.46624 4.38272 38.784 4.62336 58.3168 0.10752 8.8576 13.86496 8.86784 13.7472 0-0.24064-19.5328-3.3792-38.84544-4.61824-58.3168-0.5632-8.80128-14.31552-8.8576-13.75232 0zM388.31104 306.90304c-10.28608 48.88064-38.8352 89.36448-54.02624 136.35072-15.48288 47.90272-15.21152 100.09088-17.39264 149.85728-2.47296 56.24832-3.35872 112.5632-2.25792 168.86272 0.50176 25.3696 2.22208 50.67264 3.01056 76.032 0.60416 19.31264-2.24768 38.33344 5.19168 56.71424 3.28192 8.11008 16.5888 4.57216 13.25568-3.65056-7.54688-18.6368-4.25984-38.93248-4.86912-58.53696-0.82432-26.48576-2.49344-52.92032-3.01056-79.42656-1.0496-53.34016 0.22016-106.71104 2.42688-160 2.14528-51.8144 3.24096-103.92064 19.31776-153.67168 14.44864-44.6976 41.78432-82.16576 51.61472-128.88064 1.8176-8.64256-11.43296-12.32384-13.2608-3.65056z" fill="#666666" p-id="11626"></path><path d="M326.61504 906.69568c56.04864 12.93312 115.00544 10.92608 172.1088 9.8048 65.39264-1.28 125.91616-0.35328 197.59616-0.35328 10.24 0 10.24-13.75744 0-13.75744-61.44 0-121.55904-0.47616-181.66784 0.10752-61.16352 0.5888-123.59168 4.80768-183.71584-9.06752-8.63232-1.99168-12.96384 11.26912-4.32128 13.26592z" fill="#666666" p-id="11627"></path><path d="M583.87968 311.17824c20.73088 30.50496 51.49696 50.28864 76.24192 77.02528 36.64896 39.60832 29.0816 102.8096 29.02528 152.7552-0.11776 122.09152-1.32096 242.40128-1.32096 365.28128 0 10.24 13.7472 10.24 13.7472 0 0-122.88 1.20832-249.088 1.33632-374.1184 0.0512-46.21824 4.43904-99.63008-21.91872-140.03712-22.58944-34.62144-61.91104-53.77536-85.23264-88.09472-4.95616-7.28576-16.87552-0.16896-11.8784 7.18848z" fill="#666666" p-id="11628"></path><path d="M595.6864 401.29536c52.7616 17.55136 54.70208 70.23616 53.02272 117.9904-0.67072 18.91328-1.05984 46.06464-13.97248 61.4144-13.18912 15.68256-34.79552 1.77664-39.6032-12.32896-2.66752-7.85408-3.37408-16.64-4.1984-24.84224-1.7408-17.23904-16.49152-141.27616 6.5792-141.98784 8.84224-0.27648 8.86784-14.0288 0-13.75232-30.6432 0.95232-25.58976 61.85984-25.344 80.7168 0.45568 34.62144-0.98816 81.53088 13.77792 113.64864 7.6544 16.65024 33.67936 23.18336 49.2544 14.67392 19.78368-10.8032 23.32672-34.22208 25.45664-54.84032 6.1696-59.91424 5.7088-131.6608-61.32224-153.95328-8.43776-2.80064-12.02176 10.48064-3.65056 13.2608zM401.81248 305.664c2.59584-30.01344 1.29024-60.15488 2.048-90.23488 0.22528-8.87296-13.52704-8.85248-13.75232 0-0.75776 30.08 0.54784 60.22144-2.04288 90.23488-0.75776 8.83712 12.99456 8.76544 13.7472 0zM595.42016 303.83616c-9.984-27.18208-6.93248-62.2592-7.41376-90.85952-0.1536-8.8576-13.90592-8.86784-13.75744 0 0.512 29.80864-2.51904 66.10944 7.9104 94.5152 3.03104 8.24832 16.32768 4.6848 13.2608-3.65568zM331.37664 496.06144c33.85856 0.1536 67.6352 1.90976 101.44768 3.52256 13.14816 0.62976 26.06592 1.19296 39.20384 0.32256 14.69952-0.9728 27.70432-0.62976 28.47232 16.96256 0.8448 19.33824-2.88256 38.58432-3.35872 57.87648-0.93696 38.05184 0.86016 76.29312 1.31584 114.34496 0.29184 24.8576 1.01888 49.01888 3.29216 73.7536 1.90464 20.70528 9.79456 55.72096-15.79008 62.30528-20.1472 5.18144-42.63424 3.4304-63.26272 3.61472-32.01536 0.29184-63.88736-2.37568-95.8976-2.69824-8.87296-0.09728-8.86272 13.65504 0 13.75232 34.98496 0.3584 69.80096 2.82624 104.79616 2.63168 21.43744-0.11264 47.4368 1.86368 67.56352-7.05536 17.57696-7.79264 17.92-26.62912 18.00704-43.71968 0.16384-31.25248-4.62848-62.42816-4.86912-93.76768-0.32256-42.01984-2.36032-84.1728-1.32608-126.18752 0.5888-23.78752 7.50592-49.2288 0.87552-72.66304-5.24288-18.52928-36.21376-13.08672-49.6128-12.27264-43.06944 2.6112-87.61856-4.27008-130.85184-4.46464-8.87296-0.04608-8.86784 13.70112-0.00512 13.74208z" fill="#666666" p-id="11629"></path><path d="M444.43136 542.65344c-0.39936 53.10976 1.8688 105.85088 0 158.88896-0.41984 11.83232 17.92 11.79648 18.33472 0 1.8688-53.03808-0.39936-105.7792 0-158.88896 0.08704-11.81696-18.24768-11.81184-18.33472 0zM421.51424 542.65344c-1.52576-11.54048-19.87584-11.69408-18.33472 0 3.84512 29.1072 3.48672 57.94816 3.05664 87.08608-0.1792 11.83232 18.15552 11.81184 18.33472 0 0.42496-29.1328 0.78848-57.97888-3.05664-87.08608z" fill="#666666" p-id="11630"></path></svg>