<?xml version="1.0" standalone="no"?><!DOCTYPE svg PUBLIC "-//W3C//DTD SVG 1.1//EN" "http://www.w3.org/Graphics/SVG/1.1/DTD/svg11.dtd"><svg t="1630570550138" class="icon" viewBox="0 0 1024 1024" version="1.1" xmlns="http://www.w3.org/2000/svg" p-id="7310" xmlns:xlink="http://www.w3.org/1999/xlink" width="128" height="128"><defs><style type="text/css"></style></defs><path d="M69.818182 349.090909h418.909091v651.636364H69.818182z" fill="#ECEFF9" p-id="7311"></path><path d="M488.727273 349.090909h279.272727v651.636364H488.727273z" fill="#D5E3EF" p-id="7312"></path><path d="M69.818182 349.090909l139.636363-186.181818h418.909091l-139.636363 186.181818z" fill="#FFFFFF" p-id="7313"></path><path d="M558.545455 186.181818l-104.727273 139.636364h23.272727L581.818182 186.181818z" fill="#E2E7F0" p-id="7314"></path><path d="M209.454545 162.909091V69.818182c0-25.6 20.945455-46.545455 46.545455-46.545455h325.818182c25.6 0 46.545455 20.945455 46.545454 46.545455v93.090909H209.454545z" fill="#ECEFF9" p-id="7315"></path><path d="M488.727273 349.090909l139.636363-186.181818 139.636364 186.181818z" fill="#B0C4D8" p-id="7316"></path><path d="M395.636364 605.090909H162.909091c-13.963636 0-23.272727-9.309091-23.272727-23.272727s9.309091-23.272727 23.272727-23.272727h232.727273c13.963636 0 23.272727 9.309091 23.272727 23.272727s-9.309091 23.272727-23.272727 23.272727zM349.090909 698.181818H209.454545c-13.963636 0-23.272727-9.309091-23.272727-23.272727s9.309091-23.272727 23.272727-23.272727h139.636364c13.963636 0 23.272727 9.309091 23.272727 23.272727s-9.309091 23.272727-23.272727 23.272727z" fill="#014463" p-id="7317"></path><path d="M628.363636 202.472727L535.272727 325.818182h60.509091z" fill="#99B5CD" p-id="7318"></path><path d="M93.090909 372.363636h23.272727v605.090909H93.090909z" fill="#FFFFFF" p-id="7319"></path><path d="M442.181818 428.218182V930.909091c0 13.963636-9.309091 23.272727-23.272727 23.272727H195.490909c-20.945455 0-41.890909 9.309091-55.854545 23.272727h325.818181V372.363636c-13.963636 13.963636-23.272727 34.909091-23.272727 55.854546z" fill="#D5E3EF" p-id="7320"></path><path d="M721.454545 428.218182V930.909091c0 13.963636-9.309091 23.272727-23.272727 23.272727h-130.327273c-20.945455 0-41.890909 9.309091-55.854545 23.272727h232.727273V372.363636c-13.963636 13.963636-23.272727 34.909091-23.272728 55.854546z" fill="#B0C4D9" p-id="7321"></path><path d="M581.818182 46.545455v93.090909h23.272727V69.818182c0-13.963636-9.309091-23.272727-23.272727-23.272727z" fill="#D5E3EF" p-id="7322"></path><path d="M786.618182 335.127273L651.636364 155.927273V69.818182c0-39.563636-30.254545-69.818182-69.818182-69.818182H256C216.436364 0 186.181818 30.254545 186.181818 69.818182v86.109091l-134.981818 179.2c-2.327273 4.654545-4.654545 9.309091-4.654545 13.963636v651.636364c0 13.963636 9.309091 23.272727 23.272727 23.272727h698.181818c13.963636 0 23.272727-9.309091 23.272727-23.272727V349.090909c0-4.654545-2.327273-9.309091-4.654545-13.963636zM721.454545 325.818182h-186.181818l93.090909-123.345455 93.090909 123.345455zM232.727273 69.818182c0-13.963636 9.309091-23.272727 23.272727-23.272727h325.818182c13.963636 0 23.272727 9.309091 23.272727 23.272727v69.818182H232.727273V69.818182z m232.727272 907.636363H93.090909V372.363636h372.363636v605.090909z m11.636364-651.636363H116.363636l104.727273-139.636364H581.818182l-104.727273 139.636364zM744.727273 977.454545H512V372.363636h232.727273v605.090909z" fill="#014463" p-id="7323"></path><path d="M930.909091 707.490909V558.545455H651.636364v172.218181c37.236364 18.618182 93.090909 16.290909 125.672727-6.981818 41.890909-27.927273 104.727273-32.581818 153.6-16.290909z" fill="#C9D5E3" p-id="7324"></path><path d="M805.236364 763.345455c-41.890909 27.927273-102.4 34.909091-153.6 18.618181V930.909091c0 25.6 20.945455 46.545455 46.545454 46.545454h186.181818c25.6 0 46.545455-20.945455 46.545455-46.545454v-172.218182c-37.236364-20.945455-93.090909-18.618182-125.672727 4.654546z" fill="#FFFFFF" p-id="7325"></path><path d="M884.363636 744.727273v186.181818c0 13.963636-9.309091 23.272727-23.272727 23.272727h-202.472727c6.981818 13.963636 23.272727 23.272727 39.563636 23.272727h186.181818c25.6 0 46.545455-20.945455 46.545455-46.545454v-172.218182c-13.963636-6.981818-30.254545-11.636364-46.545455-13.963636z" fill="#DDE1E3" p-id="7326"></path><path d="M777.309091 726.109091l13.963636-6.981818V558.545455h-46.545454v181.527272c11.636364-2.327273 23.272727-6.981818 32.581818-13.963636z" fill="#A7B0C4" p-id="7327"></path><path d="M791.272727 716.8c41.890909-20.945455 95.418182-25.6 139.636364-9.309091V558.545455h-139.636364v158.254545z" fill="#E2E7F0" p-id="7328"></path><path d="M884.363636 558.545455v139.636363c16.290909 0 32.581818 4.654545 46.545455 9.309091V558.545455h-46.545455z" fill="#C9D5E3" p-id="7329"></path><path d="M698.181818 698.181818c-13.963636 0-23.272727-9.309091-23.272727-23.272727v-116.363636h46.545454v116.363636c0 13.963636-9.309091 23.272727-23.272727 23.272727z" fill="#ECF0F9" p-id="7330"></path><path d="M954.181818 512H628.363636c-13.963636 0-23.272727 9.309091-23.272727 23.272727v395.636364c0 51.2 41.890909 93.090909 93.090909 93.090909h186.181818c51.2 0 93.090909-41.890909 93.090909-93.090909V535.272727c0-13.963636-9.309091-23.272727-23.272727-23.272727z m-302.545454 46.545455h279.272727v148.945454c-48.872727-16.290909-111.709091-11.636364-153.6 18.618182-34.909091 23.272727-88.436364 25.6-125.672727 6.981818V558.545455z m279.272727 372.363636c0 25.6-20.945455 46.545455-46.545455 46.545454h-186.181818c-25.6 0-46.545455-20.945455-46.545454-46.545454v-148.945455c18.618182 6.981818 37.236364 9.309091 58.181818 9.309091 34.909091 0 67.490909-9.309091 95.418182-27.927272 34.909091-23.272727 88.436364-25.6 125.672727-4.654546V930.909091z" fill="#014463" p-id="7331"></path></svg>